<?xml version="1.0" encoding="utf-8"?>
<!-- Generator: Adobe Illustrator 17.1.0, SVG Export Plug-In . SVG Version: 6.00 Build 0)  -->
<!DOCTYPE svg PUBLIC "-//W3C//DTD SVG 1.1//EN" "http://www.w3.org/Graphics/SVG/1.1/DTD/svg11.dtd">
<svg version="1.1" xmlns="http://www.w3.org/2000/svg" xmlns:xlink="http://www.w3.org/1999/xlink" x="0px" y="0px"
	 viewBox="0 0 1200 800" enable-background="new 0 0 1200 800" xml:space="preserve">
<g id="Background">
	<rect id="XMLID_37_" fill="#FFFCF0" width="1200" height="800"/>
</g>
<g id="Object">
	<path fill="#DDB303" d="M267.3,464.2l-52.8-38.3l-52.8,38.3l20.2-62l-52.8-38.3h65.2l20.2-62l20.2,62h65.2l-52.8,38.3L267.3,464.2z
		 M140.6,367.5l45.7,33.2l-17.4,53.7l45.7-33.2l45.7,33.2l-17.4-53.7l45.7-33.2H232l-17.4-53.7l-17.4,53.7H140.6z"/>
	<path fill="#DDB303" d="M351.5,464.2l20.2-62l-52.8-38.3h65.2l20.2-62l20.2,62h65.2l-52.8,38.3l20.2,62l-52.8-38.3L351.5,464.2z
		 M404.3,421.2l45.7,33.2l-17.4-53.7l45.7-33.2h-56.4l-17.4-53.7l-17.4,53.7h-56.4l45.7,33.2l-17.4,53.7L404.3,421.2z"/>
	<path fill="#DDB303" d="M648.1,464.2l-52.8-38.3l-52.8,38.3l20.2-62l-52.8-38.3h65.2l20.2-62l20.2,62h65.2l-52.8,38.3L648.1,464.2z
		 M521.4,367.5l45.7,33.2l-17.4,53.7l45.7-33.2l45.7,33.2l-17.4-53.7l45.7-33.2h-56.4l-17.4-53.7l-17.4,53.7H521.4z"/>
	<path fill="#DDB303" d="M835.2,464.2l-52.8-38.3l-52.8,38.3l20.2-62L697,363.8h65.2l20.2-62l20.2,62h65.2L815,402.1L835.2,464.2z
		 M708.5,367.5l45.7,33.2l-17.4,53.7l45.7-33.2l45.7,33.2l-17.4-53.7l45.7-33.2h-56.4l-17.4-53.7l-17.4,53.7H708.5z"/>
	<path fill="#DDB303" d="M939.5,402.1l-52.8-38.3h65.2l20.2-62l20.2,62h65.2l-52.8,38.3l20.2,62l-52.8-38.3l-52.8,38.3L939.5,402.1z
		 M989.6,367.5l-17.4-53.7l-17.4,53.7h-56.4l45.7,33.2l-17.4,53.7l45.7-33.2l45.7,33.2l-17.4-53.7l45.7-33.2H989.6z"/>
</g>
</svg>
